<mxfile host="app.diagrams.net" agent="Mozilla/5.0 (Windows NT 10.0; Win64; x64; rv:132.0) Gecko/20100101 Firefox/132.0" version="24.8.6">
  <diagram name="Page-1" id="w_bRBzIEs2-gDjomePoE">
    <mxGraphModel dx="2597" dy="1048" grid="1" gridSize="10" guides="1" tooltips="1" connect="1" arrows="1" fold="1" page="0" pageScale="1" pageWidth="850" pageHeight="1100" math="0" shadow="0">
      <root>
        <mxCell id="0" />
        <mxCell id="1" parent="0" />
        <mxCell id="75pYQwVCtAZpEw11dxuI-51" value="" style="endArrow=none;html=1;rounded=0;exitX=0;exitY=0.375;exitDx=0;exitDy=0;exitPerimeter=0;strokeColor=#00ffff;entryX=0;entryY=0.25;entryDx=0;entryDy=0;" edge="1" parent="1" source="75pYQwVCtAZpEw11dxuI-35" target="75pYQwVCtAZpEw11dxuI-31">
          <mxGeometry width="50" height="50" relative="1" as="geometry">
            <mxPoint x="-610" y="480" as="sourcePoint" />
            <mxPoint x="-580" y="160" as="targetPoint" />
            <Array as="points">
              <mxPoint x="120" y="180" />
              <mxPoint x="120" y="40" />
              <mxPoint x="60" y="40" />
              <mxPoint x="-600" y="40" />
              <mxPoint x="-600" y="160" />
            </Array>
          </mxGeometry>
        </mxCell>
        <mxCell id="75pYQwVCtAZpEw11dxuI-52" value="" style="endArrow=none;html=1;rounded=0;entryX=0;entryY=0.69;entryDx=0;entryDy=0;entryPerimeter=0;strokeColor=#ffff00;exitX=0;exitY=0.313;exitDx=0;exitDy=0;exitPerimeter=0;" edge="1" parent="1" source="75pYQwVCtAZpEw11dxuI-46" target="75pYQwVCtAZpEw11dxuI-31">
          <mxGeometry width="50" height="50" relative="1" as="geometry">
            <mxPoint x="-600" y="650" as="sourcePoint" />
            <mxPoint x="-610" y="240" as="targetPoint" />
            <Array as="points">
              <mxPoint x="-640" y="650" />
              <mxPoint x="-640" y="440" />
              <mxPoint x="-640" y="230" />
            </Array>
          </mxGeometry>
        </mxCell>
        <mxCell id="75pYQwVCtAZpEw11dxuI-56" value="" style="endArrow=none;html=1;rounded=0;exitX=0;exitY=0.25;exitDx=0;exitDy=0;strokeColor=#ff0000;entryX=0;entryY=0.438;entryDx=0;entryDy=0;entryPerimeter=0;" edge="1" parent="1" source="75pYQwVCtAZpEw11dxuI-38" target="75pYQwVCtAZpEw11dxuI-41">
          <mxGeometry width="50" height="50" relative="1" as="geometry">
            <mxPoint y="410" as="sourcePoint" />
            <mxPoint x="150" y="430" as="targetPoint" />
            <Array as="points">
              <mxPoint x="-600" y="400" />
              <mxPoint x="-600" y="300" />
              <mxPoint x="80" y="300" />
              <mxPoint x="80" y="430" />
            </Array>
          </mxGeometry>
        </mxCell>
        <mxCell id="75pYQwVCtAZpEw11dxuI-54" value="" style="endArrow=none;html=1;rounded=0;strokeColor=#00ffff;" edge="1" parent="1">
          <mxGeometry width="50" height="50" relative="1" as="geometry">
            <mxPoint x="160" y="660" as="sourcePoint" />
            <mxPoint x="120" y="180" as="targetPoint" />
            <Array as="points">
              <mxPoint x="120" y="660" />
            </Array>
          </mxGeometry>
        </mxCell>
        <mxCell id="75pYQwVCtAZpEw11dxuI-55" value="" style="endArrow=none;html=1;rounded=0;strokeColor=#00ffff;" edge="1" parent="1">
          <mxGeometry width="50" height="50" relative="1" as="geometry">
            <mxPoint x="140" y="410" as="sourcePoint" />
            <mxPoint x="120" y="410" as="targetPoint" />
            <Array as="points">
              <mxPoint x="160" y="410" />
            </Array>
          </mxGeometry>
        </mxCell>
        <mxCell id="75pYQwVCtAZpEw11dxuI-32" value="" style="rounded=0;whiteSpace=wrap;html=1;fillColor=none;" vertex="1" parent="1">
          <mxGeometry x="-560" y="80" width="520" height="200" as="geometry" />
        </mxCell>
        <mxCell id="75pYQwVCtAZpEw11dxuI-31" value="&lt;div align=&quot;left&quot; style=&quot;color: rgb(187, 187, 187); font-family: &amp;quot;JetBrains Mono&amp;quot;, Consolas, &amp;quot;Courier New&amp;quot;, monospace; font-size: 15px; line-height: 20px; white-space: pre;&quot;&gt;&lt;div&gt;&lt;span style=&quot;color: #bbbbbb;&quot;&gt;ProyectoID | &lt;/span&gt;&lt;span style=&quot;color: #ff5d8f;&quot;&gt;INT&lt;/span&gt;&lt;span style=&quot;color: #bbbbbb;&quot;&gt; | &lt;/span&gt;&lt;span style=&quot;color: #a29bfe;&quot;&gt;PRIMARY KEY&lt;/span&gt;&lt;span style=&quot;color: #bbbbbb;&quot;&gt; | AUTO_INCREMENT&lt;/span&gt;&lt;/div&gt;&lt;div&gt;&lt;span style=&quot;color: #bbbbbb;&quot;&gt;NombreProyecto | &lt;/span&gt;&lt;span style=&quot;color: #ff5d8f;&quot;&gt;VARCHAR&lt;/span&gt;&lt;span style=&quot;color: #bbbbbb;&quot;&gt;(&lt;/span&gt;&lt;span style=&quot;color: #f0aa85;&quot;&gt;100&lt;/span&gt;&lt;span style=&quot;color: #bbbbbb;&quot;&gt;) | &lt;/span&gt;&lt;span style=&quot;color: #f0aa85;&quot;&gt;NOT NULL&lt;/span&gt;&lt;/div&gt;&lt;div&gt;&lt;span style=&quot;color: #bbbbbb;&quot;&gt;Descripcion | &lt;/span&gt;&lt;span style=&quot;color: #ff5d8f;&quot;&gt;VARCHAR&lt;/span&gt;&lt;span style=&quot;color: #bbbbbb;&quot;&gt;(&lt;/span&gt;&lt;span style=&quot;color: #f0aa85;&quot;&gt;500&lt;/span&gt;&lt;span style=&quot;color: #bbbbbb;&quot;&gt;) | &lt;/span&gt;&lt;span style=&quot;color: #f0aa85;&quot;&gt;NOT NULL&lt;/span&gt;&lt;/div&gt;&lt;div&gt;&lt;span style=&quot;color: #bbbbbb;&quot;&gt;Presupuesto | &lt;/span&gt;&lt;span style=&quot;color: #ff5d8f;&quot;&gt;DECIMAL&lt;/span&gt;&lt;span style=&quot;color: #bbbbbb;&quot;&gt;(&lt;/span&gt;&lt;span style=&quot;color: #f0aa85;&quot;&gt;18&lt;/span&gt;&lt;span style=&quot;color: #bbbbbb;&quot;&gt;, &lt;/span&gt;&lt;span style=&quot;color: #f0aa85;&quot;&gt;2&lt;/span&gt;&lt;span style=&quot;color: #bbbbbb;&quot;&gt;) | &lt;/span&gt;&lt;span style=&quot;color: #f0aa85;&quot;&gt;NOT NULL&lt;/span&gt;&lt;/div&gt;&lt;div&gt;&lt;span style=&quot;color: #bbbbbb;&quot;&gt;JefeProyecto | &lt;/span&gt;&lt;span style=&quot;color: #ff5d8f;&quot;&gt;INT&lt;/span&gt;&lt;span style=&quot;color: #bbbbbb;&quot;&gt; | &lt;/span&gt;&lt;span style=&quot;color: #a29bfe;&quot;&gt;FOREIGN KEY&lt;/span&gt;&lt;span style=&quot;color: #bbbbbb;&quot;&gt; (UsuarioID) | &lt;/span&gt;&lt;span style=&quot;color: #f0aa85;&quot;&gt;NOT NULL&lt;/span&gt;&lt;span style=&quot;color: #bbbbbb;&quot;&gt; &lt;/span&gt;&lt;/div&gt;&lt;div&gt;&lt;span style=&quot;color: #bbbbbb;&quot;&gt;FechaCreacion | &lt;/span&gt;&lt;span style=&quot;color: #f0aa85;&quot;&gt;DATETIME&lt;/span&gt;&lt;span style=&quot;color: #bbbbbb;&quot;&gt; | &lt;/span&gt;&lt;span style=&quot;color: #f0aa85;&quot;&gt;NOT NULL&lt;/span&gt;&lt;/div&gt;&lt;/div&gt;" style="rounded=0;whiteSpace=wrap;html=1;align=left;fillColor=none;strokeColor=none;shadow=0;labelBackgroundColor=none;" vertex="1" parent="1">
          <mxGeometry x="-560" y="120" width="520" height="160" as="geometry" />
        </mxCell>
        <mxCell id="75pYQwVCtAZpEw11dxuI-33" value="&lt;b&gt;PROYECTO&lt;/b&gt;" style="rounded=0;whiteSpace=wrap;html=1;fillColor=none;" vertex="1" parent="1">
          <mxGeometry x="-560" y="80" width="520" height="40" as="geometry" />
        </mxCell>
        <mxCell id="75pYQwVCtAZpEw11dxuI-34" value="" style="rounded=0;whiteSpace=wrap;html=1;fillColor=none;" vertex="1" parent="1">
          <mxGeometry x="160" y="80" width="520" height="200" as="geometry" />
        </mxCell>
        <mxCell id="75pYQwVCtAZpEw11dxuI-35" value="&lt;div align=&quot;left&quot; style=&quot;color: rgb(187, 187, 187); font-family: &amp;quot;JetBrains Mono&amp;quot;, Consolas, &amp;quot;Courier New&amp;quot;, monospace; font-weight: normal; font-size: 15px; line-height: 20px; white-space: pre;&quot;&gt;&lt;div style=&quot;color: rgb(187, 187, 187); font-family: &amp;quot;JetBrains Mono&amp;quot;, Consolas, &amp;quot;Courier New&amp;quot;, monospace; font-weight: normal; font-size: 15px; line-height: 20px; white-space: pre;&quot;&gt;&lt;div&gt;&lt;span style=&quot;color: #bbbbbb;&quot;&gt;FacturaID | &lt;/span&gt;&lt;span style=&quot;color: #ff5d8f;&quot;&gt;INT&lt;/span&gt;&lt;span style=&quot;color: #bbbbbb;&quot;&gt; | &lt;/span&gt;&lt;span style=&quot;color: #a29bfe;&quot;&gt;PRIMARY KEY&lt;/span&gt;&lt;span style=&quot;color: #bbbbbb;&quot;&gt; | AUTO_INCREMENT&lt;/span&gt;&lt;/div&gt;&lt;div&gt;&lt;span style=&quot;color: #bbbbbb;&quot;&gt;ProyectoID | &lt;/span&gt;&lt;span style=&quot;color: #ff5d8f;&quot;&gt;INT&lt;/span&gt;&lt;span style=&quot;color: #bbbbbb;&quot;&gt; | &lt;/span&gt;&lt;span style=&quot;color: #a29bfe;&quot;&gt;FOREIGN KEY&lt;/span&gt;&lt;span style=&quot;color: #bbbbbb;&quot;&gt; (ProyectoID) | &lt;/span&gt;&lt;span style=&quot;color: #f0aa85;&quot;&gt;NOT NULL&lt;/span&gt;&lt;/div&gt;&lt;div&gt;&lt;span style=&quot;color: #bbbbbb;&quot;&gt;DescripcionServicios | &lt;/span&gt;&lt;span style=&quot;color: #ff5d8f;&quot;&gt;TEXT&lt;/span&gt;&lt;span style=&quot;color: #bbbbbb;&quot;&gt; | &lt;/span&gt;&lt;span style=&quot;color: #f0aa85;&quot;&gt;NOT NULL&lt;/span&gt;&lt;/div&gt;&lt;div&gt;&lt;span style=&quot;color: #bbbbbb;&quot;&gt;Importe | &lt;/span&gt;&lt;span style=&quot;color: #ff5d8f;&quot;&gt;DECIMAL&lt;/span&gt;&lt;span style=&quot;color: #bbbbbb;&quot;&gt;(&lt;/span&gt;&lt;span style=&quot;color: #f0aa85;&quot;&gt;18&lt;/span&gt;&lt;span style=&quot;color: #bbbbbb;&quot;&gt;, &lt;/span&gt;&lt;span style=&quot;color: #f0aa85;&quot;&gt;2&lt;/span&gt;&lt;span style=&quot;color: #bbbbbb;&quot;&gt;) | &lt;/span&gt;&lt;span style=&quot;color: #f0aa85;&quot;&gt;NOT NULL&lt;/span&gt;&lt;/div&gt;&lt;div&gt;&lt;span style=&quot;color: #bbbbbb;&quot;&gt;FechaFactura | &lt;/span&gt;&lt;span style=&quot;color: #f0aa85;&quot;&gt;DATETIME&lt;/span&gt;&lt;span style=&quot;color: #bbbbbb;&quot;&gt; | &lt;/span&gt;&lt;span style=&quot;color: #f0aa85;&quot;&gt;NOT NULL&lt;/span&gt;&lt;/div&gt;&lt;/div&gt;&lt;/div&gt;" style="rounded=0;whiteSpace=wrap;html=1;align=left;fillColor=none;strokeColor=none;labelBackgroundColor=none;" vertex="1" parent="1">
          <mxGeometry x="160" y="120" width="520" height="160" as="geometry" />
        </mxCell>
        <mxCell id="75pYQwVCtAZpEw11dxuI-36" value="&lt;b&gt;FACTURA&lt;/b&gt;" style="rounded=0;whiteSpace=wrap;html=1;fillColor=none;" vertex="1" parent="1">
          <mxGeometry x="160" y="80" width="520" height="40" as="geometry" />
        </mxCell>
        <mxCell id="75pYQwVCtAZpEw11dxuI-37" value="" style="rounded=0;whiteSpace=wrap;html=1;fillColor=none;" vertex="1" parent="1">
          <mxGeometry x="-560" y="320" width="520" height="200" as="geometry" />
        </mxCell>
        <mxCell id="75pYQwVCtAZpEw11dxuI-38" value="&lt;div style=&quot;color: rgb(187, 187, 187); font-family: &amp;quot;JetBrains Mono&amp;quot;, Consolas, &amp;quot;Courier New&amp;quot;, monospace; font-weight: normal; font-size: 15px; line-height: 20px; white-space: pre;&quot;&gt;&lt;div&gt;&lt;span style=&quot;color: #bbbbbb;&quot;&gt;EmpleadoID | &lt;/span&gt;&lt;span style=&quot;color: #ff5d8f;&quot;&gt;INT&lt;/span&gt;&lt;span style=&quot;color: #bbbbbb;&quot;&gt; | &lt;/span&gt;&lt;span style=&quot;color: #a29bfe;&quot;&gt;PRIMARY KEY&lt;/span&gt;&lt;span style=&quot;color: #bbbbbb;&quot;&gt; | AUTO_INCREMENT&lt;/span&gt;&lt;/div&gt;&lt;div&gt;&lt;span style=&quot;color: #bbbbbb;&quot;&gt;Nombre | &lt;/span&gt;&lt;span style=&quot;color: #ff5d8f;&quot;&gt;VARCHAR&lt;/span&gt;&lt;span style=&quot;color: #bbbbbb;&quot;&gt;(&lt;/span&gt;&lt;span style=&quot;color: #f0aa85;&quot;&gt;100&lt;/span&gt;&lt;span style=&quot;color: #bbbbbb;&quot;&gt;) | &lt;/span&gt;&lt;span style=&quot;color: #f0aa85;&quot;&gt;NOT NULL&lt;/span&gt;&lt;/div&gt;&lt;div&gt;&lt;span style=&quot;color: #bbbbbb;&quot;&gt;Rol | &lt;/span&gt;&lt;span style=&quot;color: #ff5d8f;&quot;&gt;VARCHAR&lt;/span&gt;&lt;span style=&quot;color: #bbbbbb;&quot;&gt;(&lt;/span&gt;&lt;span style=&quot;color: #f0aa85;&quot;&gt;50&lt;/span&gt;&lt;span style=&quot;color: #bbbbbb;&quot;&gt;) | &lt;/span&gt;&lt;span style=&quot;color: #f0aa85;&quot;&gt;NOT NULL&lt;/span&gt;&lt;/div&gt;&lt;div&gt;&lt;span style=&quot;color: #bbbbbb;&quot;&gt;CosteHora | &lt;/span&gt;&lt;span style=&quot;color: #ff5d8f;&quot;&gt;DECIMAL&lt;/span&gt;&lt;span style=&quot;color: #bbbbbb;&quot;&gt;(&lt;/span&gt;&lt;span style=&quot;color: #f0aa85;&quot;&gt;10&lt;/span&gt;&lt;span style=&quot;color: #bbbbbb;&quot;&gt;, &lt;/span&gt;&lt;span style=&quot;color: #f0aa85;&quot;&gt;2&lt;/span&gt;&lt;span style=&quot;color: #bbbbbb;&quot;&gt;) | &lt;/span&gt;&lt;span style=&quot;color: #f0aa85;&quot;&gt;NOT NULL&lt;/span&gt;&lt;/div&gt;&lt;div&gt;&lt;span style=&quot;color: #bbbbbb;&quot;&gt;UsuarioID | &lt;/span&gt;&lt;span style=&quot;color: #ff5d8f;&quot;&gt;INT&lt;/span&gt;&lt;span style=&quot;color: #bbbbbb;&quot;&gt; | &lt;/span&gt;&lt;span style=&quot;color: #a29bfe;&quot;&gt;FOREIGN KEY&lt;/span&gt;&lt;span style=&quot;color: #bbbbbb;&quot;&gt; (UsuarioID) | &lt;/span&gt;&lt;span style=&quot;color: #f0aa85;&quot;&gt;NOT NULL&lt;/span&gt;&lt;/div&gt;&lt;/div&gt;" style="rounded=0;whiteSpace=wrap;html=1;align=left;fillColor=none;strokeColor=none;shadow=0;labelBackgroundColor=none;" vertex="1" parent="1">
          <mxGeometry x="-560" y="360" width="520" height="160" as="geometry" />
        </mxCell>
        <mxCell id="75pYQwVCtAZpEw11dxuI-39" value="&lt;b&gt;EMPLEADO&lt;/b&gt;" style="rounded=0;whiteSpace=wrap;html=1;labelBackgroundColor=none;fillColor=none;" vertex="1" parent="1">
          <mxGeometry x="-560" y="320" width="520" height="40" as="geometry" />
        </mxCell>
        <mxCell id="75pYQwVCtAZpEw11dxuI-40" value="" style="rounded=0;whiteSpace=wrap;html=1;fillColor=none;" vertex="1" parent="1">
          <mxGeometry x="160" y="320" width="520" height="200" as="geometry" />
        </mxCell>
        <mxCell id="75pYQwVCtAZpEw11dxuI-41" value="&lt;div style=&quot;color: rgb(187, 187, 187); font-family: &amp;quot;JetBrains Mono&amp;quot;, Consolas, &amp;quot;Courier New&amp;quot;, monospace; font-weight: normal; font-size: 15px; line-height: 20px; white-space: pre;&quot;&gt;&lt;div&gt;&lt;span style=&quot;color: #bbbbbb;&quot;&gt;AsignacionID | &lt;/span&gt;&lt;span style=&quot;color: #ff5d8f;&quot;&gt;INT&lt;/span&gt;&lt;span style=&quot;color: #bbbbbb;&quot;&gt; | &lt;/span&gt;&lt;span style=&quot;color: #a29bfe;&quot;&gt;PRIMARY KEY&lt;/span&gt;&lt;span style=&quot;color: #bbbbbb;&quot;&gt; | AUTO_INCREMENT&lt;/span&gt;&lt;/div&gt;&lt;div&gt;&lt;span style=&quot;color: #bbbbbb;&quot;&gt;ProyectoID | &lt;/span&gt;&lt;span style=&quot;color: #ff5d8f;&quot;&gt;INT&lt;/span&gt;&lt;span style=&quot;color: #bbbbbb;&quot;&gt; | &lt;/span&gt;&lt;span style=&quot;color: #a29bfe;&quot;&gt;FOREIGN KEY&lt;/span&gt;&lt;span style=&quot;color: #bbbbbb;&quot;&gt; (ProyectoID) | &lt;/span&gt;&lt;span style=&quot;color: #f0aa85;&quot;&gt;NOT NULL&lt;/span&gt;&lt;/div&gt;&lt;div&gt;&lt;span style=&quot;color: #bbbbbb;&quot;&gt;EmpleadoID | &lt;/span&gt;&lt;span style=&quot;color: #ff5d8f;&quot;&gt;INT&lt;/span&gt;&lt;span style=&quot;color: #bbbbbb;&quot;&gt; | &lt;/span&gt;&lt;span style=&quot;color: #a29bfe;&quot;&gt;FOREIGN KEY&lt;/span&gt;&lt;span style=&quot;color: #bbbbbb;&quot;&gt; (EmpleadoID) | &lt;/span&gt;&lt;span style=&quot;color: #f0aa85;&quot;&gt;NOT NULL&lt;/span&gt;&lt;/div&gt;&lt;div&gt;&lt;span style=&quot;color: #bbbbbb;&quot;&gt;HorasTrabajadas | &lt;/span&gt;&lt;span style=&quot;color: #ff5d8f;&quot;&gt;DECIMAL&lt;/span&gt;&lt;span style=&quot;color: #bbbbbb;&quot;&gt;(&lt;/span&gt;&lt;span style=&quot;color: #f0aa85;&quot;&gt;10&lt;/span&gt;&lt;span style=&quot;color: #bbbbbb;&quot;&gt;, &lt;/span&gt;&lt;span style=&quot;color: #f0aa85;&quot;&gt;2&lt;/span&gt;&lt;span style=&quot;color: #bbbbbb;&quot;&gt;) | &lt;/span&gt;&lt;span style=&quot;color: #f0aa85;&quot;&gt;NOT NULL&lt;/span&gt;&lt;/div&gt;&lt;div&gt;&lt;span style=&quot;color: #bbbbbb;&quot;&gt;CosteAdicional | &lt;/span&gt;&lt;span style=&quot;color: #ff5d8f;&quot;&gt;DECIMAL&lt;/span&gt;&lt;span style=&quot;color: #bbbbbb;&quot;&gt;(&lt;/span&gt;&lt;span style=&quot;color: #f0aa85;&quot;&gt;18&lt;/span&gt;&lt;span style=&quot;color: #bbbbbb;&quot;&gt;, &lt;/span&gt;&lt;span style=&quot;color: #f0aa85;&quot;&gt;2&lt;/span&gt;&lt;span style=&quot;color: #bbbbbb;&quot;&gt;) | &lt;/span&gt;&lt;span style=&quot;color: #f0aa85;&quot;&gt;NOT NULL&lt;/span&gt;&lt;/div&gt;&lt;div&gt;&lt;span style=&quot;color: #bbbbbb;&quot;&gt;FechaRegistro | &lt;/span&gt;&lt;span style=&quot;color: #f0aa85;&quot;&gt;DATETIME&lt;/span&gt;&lt;span style=&quot;color: #bbbbbb;&quot;&gt; | &lt;/span&gt;&lt;span style=&quot;color: #f0aa85;&quot;&gt;NOT NULL&lt;/span&gt;&lt;/div&gt;&lt;/div&gt;" style="rounded=0;whiteSpace=wrap;html=1;align=left;fillColor=none;strokeColor=none;shadow=0;labelBackgroundColor=none;" vertex="1" parent="1">
          <mxGeometry x="160" y="360" width="520" height="160" as="geometry" />
        </mxCell>
        <mxCell id="75pYQwVCtAZpEw11dxuI-42" value="&lt;b&gt;ASIGNACION EMPLEADO PROYECTO&lt;br&gt;&lt;/b&gt;" style="rounded=0;whiteSpace=wrap;html=1;fillColor=none;" vertex="1" parent="1">
          <mxGeometry x="160" y="320" width="520" height="40" as="geometry" />
        </mxCell>
        <mxCell id="75pYQwVCtAZpEw11dxuI-43" value="" style="endArrow=classic;html=1;rounded=0;exitX=0;exitY=0.5;exitDx=0;exitDy=0;entryX=1;entryY=0.5;entryDx=0;entryDy=0;" edge="1" parent="1" source="75pYQwVCtAZpEw11dxuI-35" target="75pYQwVCtAZpEw11dxuI-31">
          <mxGeometry width="50" height="50" relative="1" as="geometry">
            <mxPoint x="40" y="100" as="sourcePoint" />
            <mxPoint x="90" y="50" as="targetPoint" />
          </mxGeometry>
        </mxCell>
        <mxCell id="75pYQwVCtAZpEw11dxuI-44" value="" style="endArrow=classic;html=1;rounded=0;exitX=0;exitY=0.5;exitDx=0;exitDy=0;entryX=1;entryY=0.5;entryDx=0;entryDy=0;" edge="1" parent="1" source="75pYQwVCtAZpEw11dxuI-41" target="75pYQwVCtAZpEw11dxuI-38">
          <mxGeometry width="50" height="50" relative="1" as="geometry">
            <mxPoint x="30" y="410" as="sourcePoint" />
            <mxPoint x="80" y="360" as="targetPoint" />
          </mxGeometry>
        </mxCell>
        <mxCell id="75pYQwVCtAZpEw11dxuI-45" value="" style="rounded=0;whiteSpace=wrap;html=1;fillColor=none;" vertex="1" parent="1">
          <mxGeometry x="-560" y="560" width="520" height="200" as="geometry" />
        </mxCell>
        <mxCell id="75pYQwVCtAZpEw11dxuI-46" value="&lt;div style=&quot;color: rgb(187, 187, 187); font-family: &amp;quot;JetBrains Mono&amp;quot;, Consolas, &amp;quot;Courier New&amp;quot;, monospace; font-weight: normal; font-size: 15px; line-height: 20px; white-space: pre;&quot;&gt;&lt;div&gt;&lt;span style=&quot;color: #bbbbbb;&quot;&gt;UsuarioID | &lt;/span&gt;&lt;span style=&quot;color: #ff5d8f;&quot;&gt;INT&lt;/span&gt;&lt;span style=&quot;color: #bbbbbb;&quot;&gt; | &lt;/span&gt;&lt;span style=&quot;color: #a29bfe;&quot;&gt;PRIMARY KEY&lt;/span&gt;&lt;span style=&quot;color: #bbbbbb;&quot;&gt; | AUTO_INCREMENT&lt;/span&gt;&lt;/div&gt;&lt;div&gt;&lt;span style=&quot;color: #bbbbbb;&quot;&gt;NombreUsuario | &lt;/span&gt;&lt;span style=&quot;color: #ff5d8f;&quot;&gt;VARCHAR&lt;/span&gt;&lt;span style=&quot;color: #bbbbbb;&quot;&gt;(&lt;/span&gt;&lt;span style=&quot;color: #f0aa85;&quot;&gt;50&lt;/span&gt;&lt;span style=&quot;color: #bbbbbb;&quot;&gt;) | &lt;/span&gt;&lt;span style=&quot;color: #f0aa85;&quot;&gt;NOT NULL&lt;/span&gt;&lt;/div&gt;&lt;div&gt;&lt;span style=&quot;color: #bbbbbb;&quot;&gt;Rol | &lt;/span&gt;&lt;span style=&quot;color: #ff5d8f;&quot;&gt;VARCHAR&lt;/span&gt;&lt;span style=&quot;color: #bbbbbb;&quot;&gt;(&lt;/span&gt;&lt;span style=&quot;color: #f0aa85;&quot;&gt;20&lt;/span&gt;&lt;span style=&quot;color: #bbbbbb;&quot;&gt;) | &lt;/span&gt;&lt;span style=&quot;color: #f0aa85;&quot;&gt;NOT NULL&lt;/span&gt;&lt;/div&gt;&lt;div&gt;&lt;span style=&quot;color: #bbbbbb;&quot;&gt;Contrasena | &lt;/span&gt;&lt;span style=&quot;color: #ff5d8f;&quot;&gt;VARCHAR&lt;/span&gt;&lt;span style=&quot;color: #bbbbbb;&quot;&gt;(&lt;/span&gt;&lt;span style=&quot;color: #f0aa85;&quot;&gt;255&lt;/span&gt;&lt;span style=&quot;color: #bbbbbb;&quot;&gt;) | &lt;/span&gt;&lt;span style=&quot;color: #f0aa85;&quot;&gt;NOT NULL&lt;/span&gt;&lt;/div&gt;&lt;/div&gt;" style="rounded=0;whiteSpace=wrap;html=1;align=left;fillColor=none;strokeColor=none;shadow=0;labelBackgroundColor=none;" vertex="1" parent="1">
          <mxGeometry x="-560" y="600" width="520" height="160" as="geometry" />
        </mxCell>
        <mxCell id="75pYQwVCtAZpEw11dxuI-47" value="&lt;b&gt;USUARIO&lt;/b&gt;" style="rounded=0;whiteSpace=wrap;html=1;labelBackgroundColor=none;fillColor=none;" vertex="1" parent="1">
          <mxGeometry x="-560" y="560" width="520" height="40" as="geometry" />
        </mxCell>
        <mxCell id="75pYQwVCtAZpEw11dxuI-48" value="" style="rounded=0;whiteSpace=wrap;html=1;fillColor=none;" vertex="1" parent="1">
          <mxGeometry x="160" y="560" width="520" height="200" as="geometry" />
        </mxCell>
        <mxCell id="75pYQwVCtAZpEw11dxuI-49" value="&lt;div style=&quot;color: rgb(187, 187, 187); font-family: &amp;quot;JetBrains Mono&amp;quot;, Consolas, &amp;quot;Courier New&amp;quot;, monospace; font-weight: normal; font-size: 15px; line-height: 20px; white-space: pre;&quot;&gt;&lt;div style=&quot;color: rgb(187, 187, 187); font-family: &amp;quot;JetBrains Mono&amp;quot;, Consolas, &amp;quot;Courier New&amp;quot;, monospace; font-weight: normal; font-size: 15px; line-height: 20px; white-space: pre;&quot;&gt;&lt;div&gt;&lt;span style=&quot;color: #bbbbbb;&quot;&gt;CosteAdicionalID | &lt;/span&gt;&lt;span style=&quot;color: #ff5d8f;&quot;&gt;INT&lt;/span&gt;&lt;span style=&quot;color: #bbbbbb;&quot;&gt; | &lt;/span&gt;&lt;span style=&quot;color: #a29bfe;&quot;&gt;PRIMARY KEY&lt;/span&gt;&lt;span style=&quot;color: #bbbbbb;&quot;&gt; | AUTO_INCREMENT&lt;/span&gt;&lt;/div&gt;&lt;div&gt;&lt;span style=&quot;color: #bbbbbb;&quot;&gt;ProyectoID | &lt;/span&gt;&lt;span style=&quot;color: #ff5d8f;&quot;&gt;INT&lt;/span&gt;&lt;span style=&quot;color: #bbbbbb;&quot;&gt; | &lt;/span&gt;&lt;span style=&quot;color: #a29bfe;&quot;&gt;FOREIGN KEY&lt;/span&gt;&lt;span style=&quot;color: #bbbbbb;&quot;&gt; (ProyectoID) | &lt;/span&gt;&lt;span style=&quot;color: #f0aa85;&quot;&gt;NOT NULL&lt;/span&gt;&lt;/div&gt;&lt;div&gt;&lt;span style=&quot;color: #bbbbbb;&quot;&gt;Descripcion | &lt;/span&gt;&lt;span style=&quot;color: #ff5d8f;&quot;&gt;VARCHAR&lt;/span&gt;&lt;span style=&quot;color: #bbbbbb;&quot;&gt;(&lt;/span&gt;&lt;span style=&quot;color: #f0aa85;&quot;&gt;200&lt;/span&gt;&lt;span style=&quot;color: #bbbbbb;&quot;&gt;) | &lt;/span&gt;&lt;span style=&quot;color: #f0aa85;&quot;&gt;NOT NULL&lt;/span&gt;&lt;/div&gt;&lt;div&gt;&lt;span style=&quot;color: #bbbbbb;&quot;&gt;Monto | &lt;/span&gt;&lt;span style=&quot;color: #ff5d8f;&quot;&gt;DECIMAL&lt;/span&gt;&lt;span style=&quot;color: #bbbbbb;&quot;&gt;(&lt;/span&gt;&lt;span style=&quot;color: #f0aa85;&quot;&gt;18&lt;/span&gt;&lt;span style=&quot;color: #bbbbbb;&quot;&gt;, &lt;/span&gt;&lt;span style=&quot;color: #f0aa85;&quot;&gt;2&lt;/span&gt;&lt;span style=&quot;color: #bbbbbb;&quot;&gt;) | &lt;/span&gt;&lt;span style=&quot;color: #f0aa85;&quot;&gt;NOT NULL&lt;/span&gt;&lt;/div&gt;&lt;div&gt;&lt;span style=&quot;color: #bbbbbb;&quot;&gt;FechaCoste | &lt;/span&gt;&lt;span style=&quot;color: #f0aa85;&quot;&gt;DATETIME&lt;/span&gt;&lt;span style=&quot;color: #bbbbbb;&quot;&gt; | &lt;/span&gt;&lt;span style=&quot;color: #f0aa85;&quot;&gt;NOT NULL&lt;/span&gt;&lt;/div&gt;&lt;/div&gt;&lt;/div&gt;" style="rounded=0;whiteSpace=wrap;html=1;align=left;fillColor=none;strokeColor=none;shadow=0;labelBackgroundColor=none;" vertex="1" parent="1">
          <mxGeometry x="160" y="600" width="520" height="160" as="geometry" />
        </mxCell>
        <mxCell id="75pYQwVCtAZpEw11dxuI-50" value="&lt;div&gt;&lt;b&gt;COSTE ADICIONAL&lt;/b&gt;&lt;/div&gt;" style="rounded=0;whiteSpace=wrap;html=1;labelBackgroundColor=none;fillColor=none;" vertex="1" parent="1">
          <mxGeometry x="160" y="560" width="520" height="40" as="geometry" />
        </mxCell>
        <mxCell id="75pYQwVCtAZpEw11dxuI-53" value="" style="endArrow=none;html=1;rounded=0;entryX=0;entryY=0.75;entryDx=0;entryDy=0;strokeColor=#ffff00;" edge="1" parent="1" target="75pYQwVCtAZpEw11dxuI-38">
          <mxGeometry width="50" height="50" relative="1" as="geometry">
            <mxPoint x="-600" y="650" as="sourcePoint" />
            <mxPoint x="-590" y="410" as="targetPoint" />
            <Array as="points">
              <mxPoint x="-600" y="480" />
            </Array>
          </mxGeometry>
        </mxCell>
      </root>
    </mxGraphModel>
  </diagram>
</mxfile>
